<svg xmlns="http://www.w3.org/2000/svg" width="271" height="190" viewBox="0 0 71.5 50">
  <style>
  @media (prefers-color-scheme: light) {
    svg {
      filter: contrast(90%);
    }
  }

  @media (prefers-color-scheme: dark) {
    svg {
      filter: contrast(90%) url(#invert-luminance);
    }
  }
  </style>
  <defs>
    <filter id="invert-luminance" color-interpolation-filters="sRGB">
      <feColorMatrix type="matrix"
       values="
         0.368  -1.023  -0.346  0  1
        -0.632  -0.023  -0.346  0  1
        -0.632  -1.023   0.654  0  1
         0       0       0      1  0
        "
      />
    </filter>
    <marker id="a" markerHeight="5" markerWidth="8.75" orient="auto-start-reverse" preserveAspectRatio="xMidYMid" refX="0" refY="0" style="overflow:visible" viewBox="0 0 8.75 5">
      <path d="m0 0 5-5-17.5 5L5 5Z" style="fill:#000;fill-rule:evenodd;stroke:none" transform="scale(-.5)"/>
    </marker>
  </defs>
<!--area under graph-->
  <path d="M15.266 27.082v-15.56l.95-.54a19.67 19.67 0 0 1 5.16-2.07c2.08-.53 3.1-.66 5.48-.66 2.27 0 2.9.08 4.42.58 1.84.6 3.25 1.44 6.12 3.59a73.6 73.6 0 0 0 2.67 1.92 13.8 13.8 0 0 0 7.2 2.44l1.14.06-.06 8.98c-.03 4.93-.06 10.74-.06 12.9v3.93h-33.02z" style="fill:#ffd4e5;fill-opacity:1;stroke:none;stroke-width:.0880478;stroke-linecap:butt;stroke-linejoin:miter;stroke-miterlimit:4;stroke-dasharray:none;stroke-dashoffset:0;stroke-opacity:1;stop-color:#000;stop-opacity:1"/>
<!--axes-->
  <path d="m9.762 4.908.204 37.694h51.6" style="fill:none;fill-opacity:1;stroke:#000;stroke-width:.35;stroke-dasharray:none;stroke-opacity:1;marker-start:url(#a);marker-end:url(#a)"/>
<!--graph-->
  <path d="M11.266 14.902s5.29-6.61 15.88-6.61c11.9 0 11.9 13.2 29.1 6.61" style="fill:none;fill-opacity:1;stroke:#000;stroke-width:.529167;stroke-dasharray:none;stroke-opacity:1"/>
<!--a delimiter-->
  <path d="M15.266 43.402v-32" style="font-variation-settings:normal;opacity:1;vector-effect:none;fill:none;fill-opacity:1;stroke:#000;stroke-width:.247;stroke-linecap:butt;stroke-linejoin:miter;stroke-miterlimit:4;stroke-dasharray:none;stroke-dashoffset:0;stroke-opacity:1;stop-color:#000;stop-opacity:1"/>
<!--b delimiter-->
  <path d="m48.366 43.402.141-26.7" style="font-variation-settings:normal;vector-effect:none;fill:none;fill-opacity:1;stroke:#000;stroke-width:.247;stroke-linecap:butt;stroke-linejoin:miter;stroke-miterlimit:4;stroke-dasharray:none;stroke-dashoffset:0;stroke-opacity:1;stop-color:#000"/>
  <g transform="translate(3.166 -9.48)">
    <animate attributeName="opacity" dur="2s" from="0" keyTimes="0;0.5;0.5;1" repeatCount="indefinite" to="1" values="0;0;1;1"/>
<!--f(x)-->
    <text xml:space="preserve" x="54.14" y="25.809" style="font-family:sans;font-size:4.2px;fill:#000;fill-opacity:1;stroke-width:.26"><tspan x="54.14" y="25.809" style="stroke-width:.26">$f(x)$</tspan></text>
<!--\int_a^b f(x) dx-->
    <text xml:space="preserve" x="44.836" y="38.215" style="font-family:sans;font-size:4.2px;text-align:center;text-anchor:middle;fill:#000;fill-opacity:1;stroke-width:.26"><tspan x="28.657" y="38.215" style="text-align:center;text-anchor:middle;stroke-width:.26">$\int_a^b f(x)dx$</tspan></text>
<!--y-->
    <text xml:space="preserve" x="11.508" y="14.612" style="font-family:sans;font-size:4.2px;text-align:end;text-anchor:end;fill:#000;fill-opacity:1;stroke-width:.26"><tspan x="5.057" y="14.612" style="font-size:4.2px;text-align:end;text-anchor:end;fill:#000;fill-opacity:1;stroke-width:.26">$y$</tspan></text>
<!--x-->
    <text xml:space="preserve" x="66.884" y="57.131" style="font-family:sans;font-size:4.2px;text-align:end;text-anchor:end;fill:#000;fill-opacity:1;stroke-width:.26"><tspan x="60.353" y="57.131" style="text-align:end;text-anchor:end;stroke-width:.26">$x$</tspan></text>
<!--a-->
    <text xml:space="preserve" x="15.42" y="57.096" style="font-family:sans;font-size:4.2px;text-align:center;text-anchor:middle;fill:#000;fill-opacity:1;stroke-width:.26"><tspan x="12.087" y="57.096" style="text-align:center;text-anchor:middle;stroke-width:.26">$a$</tspan></text>
<!--b-->
    <text xml:space="preserve" x="48.616" y="57.104" style="font-family:sans;font-size:4.2px;text-align:center;text-anchor:middle;display:inline;fill:#000;fill-opacity:1;stroke-width:.26"><tspan x="45.17" y="57.104" style="text-align:center;text-anchor:middle;stroke-width:.26">$b$</tspan></text>
  </g>
  <g transform="translate(3.166 -9.498)">
    <animate attributeName="opacity" begin="1s" dur="2s" from="0" keyTimes="0;0.5;0.5;1" repeatCount="indefinite" to="1" values="0;0;1;1"/>
<!--f(x)-->
    <path d="M54.72 26.58q.01 0 .03.011.02.01.054.015.035.004.06.004.065 0 .119-.064.055-.064.08-.144.049-.134.169-.76.118-.627.228-1.193l.109-.571v-.015h-.233q-.233 0-.249-.01-.02-.014-.02-.05l.035-.138q.01-.025.04-.025l.233-.005q.238 0 .238-.005 0-.01.045-.248.045-.239.06-.289.184-.819.726-.819.184.01.303.109.118.1.118.263 0 .18-.104.258-.104.08-.209.085-.218 0-.218-.209 0-.094.055-.163.055-.07.119-.104l.044-.026q-.078-.03-.148-.03-.06 0-.115.05-.054.05-.074.139-.034.144-.08.388-.044.243-.079.412-.035.169-.035.179 0 .01.274.01.223 0 .257.005.036.005.056.03.004.02-.011.085-.015.064-.025.078-.01.026-.044.026l-.269.004h-.277l-.114.606q-.24 1.232-.333 1.54-.135.423-.348.627-.184.159-.363.159-.159 0-.288-.095-.13-.094-.13-.268 0-.185.105-.269.105-.084.209-.084.219 0 .219.208 0 .095-.056.165-.054.07-.119.104zm2.613-2.046q0-.343.05-.65.05-.31.114-.532.064-.223.183-.438l.189-.333q.07-.118.21-.257.138-.14.163-.17.025-.03.124-.104h.084q.07 0 .07.044 0 .016-.084.106-.085.088-.204.263-.12.174-.245.427-.123.253-.207.685-.084.433-.084.959 0 .527.084.954.084.428.203.69.12.264.244.428.124.163.209.263.084.1.084.104 0 .045-.074.045h-.08l-.139-.12q-.466-.42-.68-1.053-.214-.63-.214-1.31zm1.723-.193q.036-.21.269-.482.233-.274.577-.279.173 0 .317.09.145.089.214.223.208-.313.501-.313.184 0 .319.11.133.109.138.292 0 .144-.07.233-.068.09-.133.111-.065.019-.115.019-.094 0-.153-.054-.06-.056-.06-.145 0-.228.248-.313-.055-.064-.2-.064-.063 0-.093.01-.188.08-.277.327-.3 1.1-.3 1.282 0 .14.08.2.08.059.174.059.184 0 .363-.164.178-.165.243-.402.015-.05.03-.056.015-.004.08-.01h.02q.074 0 .074.04l-.01.056q-.08.283-.308.502-.229.218-.532.218-.347 0-.526-.313-.204.308-.467.308h-.03q-.244 0-.347-.13-.105-.129-.11-.273 0-.159.094-.258.095-.1.224-.1.214 0 .214.209 0 .1-.06.174-.06.075-.115.1-.054.025-.064.025l-.015.004q0 .005.03.02t.08.034q.05.02.094.016.178 0 .308-.224.045-.08.114-.338.07-.258.14-.536.07-.277.08-.328.024-.134.024-.193 0-.14-.075-.2-.074-.06-.169-.06-.2 0-.372.16-.175.158-.245.407-.009.044-.024.05-.014.004-.079.01h-.07q-.03-.03-.03-.056zm2.882-2.286.02-.005h.11l.138.12q.466.421.68 1.053.215.63.215 1.31 0 .34-.05.652-.05.313-.115.532-.064.219-.184.436-.119.219-.188.333-.07.114-.204.254l-.158.163q-.026.026-.115.095l-.02.02h-.114q-.015 0-.025-.015-.01-.015-.015-.044l.056-.066q.769-.799.769-2.36 0-1.559-.77-2.359l-.056-.064q0-.04.026-.056z" style="stroke-width:1.1099"/>
<!--\int_a^b f(x) dx-->
    <path d="M57.99 55.64q.035-.211.272-.488.236-.277.583-.282.176 0 .322.09.146.091.216.227.211-.317.508-.317.186 0 .322.111.136.11.14.297 0 .146-.07.236t-.135.11q-.066.02-.116.02-.096 0-.156-.054-.06-.056-.06-.146 0-.232.251-.317-.055-.066-.2-.066-.066 0-.097.01-.19.081-.28.332-.303 1.112-.303 1.298 0 .14.08.201.081.06.177.06.186 0 .367-.165.18-.166.246-.408.015-.05.03-.055.015-.005.08-.01h.021q.075 0 .075.04l-.01.055q-.08.287-.31.508-.233.222-.54.222-.352 0-.533-.317-.206.312-.473.312h-.03q-.246 0-.352-.131-.105-.13-.11-.277 0-.16.095-.261.096-.1.226-.1.217 0 .217.21 0 .101-.06.176-.06.076-.116.101-.056.025-.066.025l-.015.005q0 .005.03.02t.08.035q.051.02.096.016.182 0 .312-.227.046-.08.116-.342.07-.261.14-.543.071-.282.081-.332.025-.136.025-.196 0-.14-.075-.201-.075-.06-.17-.06-.202 0-.378.16-.176.161-.247.413-.01.045-.025.05-.015.005-.08.01h-.07q-.03-.03-.03-.055z" style="display:inline"/>
<!--x-->
    <path d="M2.527 13.18q0-.067.072-.232.072-.164.232-.342.16-.18.357-.174.198 0 .32.11.12.112.124.31-.01.092-.014.101 0 .015-.077.222-.078.208-.16.47-.082.26-.077.414 0 .208.068.29.067.082.202.087.11 0 .208-.053.097-.054.15-.112.053-.057.13-.159 0-.005.024-.096.024-.092.068-.285.043-.193.092-.358.183-.724.202-.758.063-.13.208-.13.063 0 .1.034.04.033.055.058.014.024.01.043 0 .063-.237 1.014-.237.951-.27 1.043-.136.4-.47.637-.332.237-.665.242-.218 0-.382-.106-.164-.107-.164-.319 0-.106.034-.179.033-.072.09-.106.06-.034.098-.048.04-.015.082-.015.213 0 .213.203 0 .097-.058.17-.058.072-.11.096-.055.024-.064.024l-.015.005q.01.024.092.058.082.033.164.033h.04q.081 0 .124-.01.16-.043.295-.183.135-.14.208-.3.072-.159.11-.27.04-.11.04-.144l-.03.02q-.03.02-.09.052-.064.034-.127.058-.097.024-.188.024-.222 0-.39-.106-.17-.106-.224-.343-.004-.034-.004-.15 0-.275.17-.72.168-.443.168-.564v-.068q0-.014-.02-.034-.02-.019-.053-.019h-.02q-.11 0-.202.092-.092.092-.145.198-.053.106-.082.203-.03.096-.038.106-.01.01-.078.01h-.067q-.03-.03-.03-.044z" style="display:inline"/>
<!--y-->
    <path d="M10.898 56.269q0-.514.386-.976.386-.462.869-.467.259 0 .457.249.081-.153.234-.153.066 0 .117.04.05.042.05.102 0 .067-.187.813-.188.747-.194.844 0 .127.036.167.036.04.107.046.045-.005.101-.046.107-.101.209-.487.03-.102.05-.107.01-.005.051-.005h.02q.097 0 .097.046 0 .03-.025.137-.026.106-.102.274-.076.168-.162.254-.067.066-.163.107-.04.01-.122.01-.173 0-.29-.076-.116-.077-.152-.158l-.03-.076q-.006-.005-.02.005l-.021.02q-.3.285-.61.285-.28 0-.493-.203-.213-.204-.213-.646zm1.616-.87q0-.03-.026-.111-.025-.081-.117-.178-.091-.096-.233-.101-.178 0-.34.157-.163.158-.255.412-.147.4-.208.833v.056q0 .04-.005.06 0 .23.091.316.092.086.219.091.193 0 .38-.168.189-.167.224-.259.01-.02.138-.543.127-.524.132-.564z" style="display:inline;fill:#000;stroke:#000;stroke-width:0"/>
<!--a-->
    <path d="M44.438 53.764q0-.051.02-.117.021-.066.061-.066l.366-.026q.36-.025.37-.03.061 0 .061.046 0 .045-.172.726l-.086.355q-.046.183-.077.275l-.02.096q0 .016.03-.015.25-.203.514-.203.314 0 .507.233.193.234.198.59 0 .563-.4 1.02-.402.456-.864.456-.254 0-.462-.193-.209-.193-.213-.624v-.045q0-.107.04-.295.04-.189.249-1 .254-1 .254-1.061 0-.061-.193-.071h-.133q-.014 0-.034-.016-.021-.015-.016-.035zm1.335 1.635v-.031q0-.376-.31-.376-.086 0-.177.041-.092.041-.167.107-.077.066-.133.122-.056.055-.091.11l-.03.041-.107.437q-.112.437-.112.62 0 .244.122.366.081.08.203.08.168 0 .34-.162.127-.117.204-.284.076-.167.167-.532.09-.366.09-.539z" style="stroke-width:.00507735"/>
<!--b-->
    <path d="M25.188 39.013q.01 0 .03.01.02.01.055.014.034.006.058.006.065 0 .12-.065.056-.064.08-.145.05-.134.167-.758l.23-1.191.108-.572v-.014h-.233q-.233 0-.247-.011-.02-.015-.02-.05l.034-.138q.01-.025.04-.025l.233-.005q.238 0 .238-.005 0-.009.045-.248.044-.238.06-.288.184-.818.725-.818.183.009.302.108.12.1.12.263 0 .179-.105.259-.104.078-.208.084-.218 0-.218-.209 0-.094.054-.163.055-.07.12-.105l.044-.024q-.08-.03-.15-.03-.058 0-.113.05-.056.049-.075.138-.034.145-.079.387-.045.243-.08.413-.035.168-.035.178 0 .01.273.01.223 0 .26.005.033.005.054.03.004.02-.011.085-.015.064-.025.078-.01.025-.044.025l-.268.006h-.279l-.114.605q-.237 1.23-.332 1.539-.134.421-.347.624-.184.16-.363.16-.16 0-.287-.094-.13-.095-.13-.268 0-.184.105-.268.104-.085.208-.085.218 0 .218.208 0 .095-.054.164-.055.07-.12.105zm2.61-2.046q0-.342.05-.65t.115-.53q.064-.224.184-.437l.188-.334q.07-.118.209-.257.138-.14.164-.169.024-.03.122-.104h.086q.07 0 .07.044 0 .016-.085.105-.084.09-.203.263-.12.173-.243.426-.125.253-.209.685-.085.433-.085.96 0 .525.085.952.084.427.203.69.12.262.243.426.125.164.209.264.085.099.085.103 0 .045-.075.045h-.08l-.139-.118q-.466-.423-.68-1.053-.212-.63-.212-1.31Zm1.723-.193q.036-.208.268-.482.234-.273.576-.278.174 0 .318.09.144.09.213.223.209-.312.502-.312.183 0 .317.109.134.11.14.292 0 .145-.07.235-.07.089-.134.108-.064.02-.115.02-.093 0-.154-.055-.059-.055-.059-.144 0-.227.248-.312-.055-.065-.199-.065-.063 0-.093.01-.19.08-.28.328-.296 1.097-.296 1.28 0 .139.078.2.08.058.175.058.183 0 .362-.164.178-.164.244-.401.015-.05.03-.056.015-.004.078-.009h.02q.075 0 .075.04l-.01.055q-.08.282-.308.5-.228.22-.53.22-.349 0-.527-.313-.203.307-.466.307h-.03q-.244 0-.347-.128-.105-.13-.11-.274 0-.158.094-.257.095-.1.223-.1.214 0 .214.208 0 .1-.059.174-.06.075-.115.1-.054.024-.065.024l-.014.005q0 .005.03.02t.078.034q.05.02.096.015.179 0 .307-.223.044-.079.115-.338.069-.257.138-.535.07-.279.08-.328.025-.134.025-.194 0-.138-.075-.199-.075-.059-.168-.059-.199 0-.373.159-.174.16-.243.407-.01.044-.025.05-.015.004-.08.01h-.069q-.03-.03-.03-.056zm2.88-2.283.019-.005h.11l.139.119q.466.422.68 1.052.213.631.213 1.31 0 .338-.05.65-.05.313-.114.533-.065.217-.184.436-.118.218-.189.332-.069.115-.203.253-.133.14-.159.164-.025.025-.114.095l-.02.02h-.114q-.014 0-.024-.015-.011-.015-.016-.045.006-.004.056-.065.77-.798.77-2.358 0-1.558-.77-2.358-.05-.059-.056-.063 0-.04.026-.056zm3.45.328.357-.026q.352-.024.362-.03.06 0 .06.04 0 .035-.363 1.5-.363 1.464-.372 1.494-.01.03-.005.074 0 .208.14.208.044-.004.099-.044.103-.1.203-.477.03-.1.05-.104.01-.005.049-.005h.04q.075 0 .075.04 0 .025-.016.078-.065.25-.148.403-.085.154-.14.199-.054.044-.14.08-.038.009-.117.009-.17 0-.284-.074-.113-.075-.148-.154l-.03-.074q-.006-.006-.02.004l-.02.02q-.292.279-.596.279-.273 0-.48-.2-.21-.198-.21-.63 0-.238.1-.486t.238-.427q.234-.283.467-.392.233-.11.422-.11.277 0 .417.21.024.03.024.02l.134-.542q.13-.522.14-.55 0-.065-.036-.08-.034-.015-.193-.025h-.105q-.029-.03-.029-.04 0-.01.01-.094.025-.095.065-.095zm-.07 1.771q-.114-.391-.373-.391-.173 0-.332.154-.159.153-.248.401-.145.393-.204.814v.055q0 .04-.005.06 0 .222.09.307.089.085.213.09.267 0 .55-.358l.04-.055zm1.091.184q.035-.208.268-.482.234-.273.577-.278.174 0 .318.09.144.09.213.223.208-.312.502-.312.183 0 .316.109.134.11.14.292 0 .145-.07.235-.07.089-.133.108-.065.02-.115.02-.095 0-.154-.055t-.059-.144q0-.227.248-.312-.055-.065-.199-.065-.065 0-.094.01-.19.08-.279.328-.297 1.097-.297 1.28 0 .139.08.2.078.058.173.058.184 0 .362-.164.179-.164.244-.401.015-.05.03-.056.014-.004.079-.009h.02q.075 0 .075.04l-.012.055q-.078.282-.306.5-.229.22-.531.22-.348 0-.527-.313-.203.307-.466.307h-.03q-.243 0-.347-.128-.105-.13-.11-.274 0-.158.095-.257.094-.1.223-.1.214 0 .214.208 0 .1-.06.174-.06.075-.114.1-.055.024-.065.024l-.014.005q0 .005.03.02.029.015.078.034.05.02.095.015.178 0 .307-.223.045-.079.115-.338.07-.257.139-.535.069-.279.079-.328.025-.134.025-.194 0-.138-.074-.199-.075-.059-.169-.059-.198 0-.372.159-.174.16-.243.407-.012.044-.026.05-.015.004-.078.01h-.07q-.03-.03-.03-.056zm-14.595-3.48q0-.034.014-.08t.042-.046l.252-.017q.25-.018.257-.021.042 0 .042.031 0 .032-.12.502-.028.12-.06.246-.03.126-.052.19l-.014.066q0 .01.021-.01.172-.14.355-.14.217 0 .35.16.134.162.137.408 0 .39-.277.705-.277.316-.596.316-.176 0-.32-.134-.144-.133-.147-.431v-.032q0-.073.028-.203t.172-.692q.175-.69.175-.733 0-.042-.133-.05h-.091q-.01 0-.025-.01-.014-.01-.01-.024zm.923 1.13v-.02q0-.26-.214-.26-.06 0-.123.028t-.116.074q-.053.045-.091.084-.039.039-.064.077l-.02.028-.074.302q-.077.302-.077.428 0 .169.084.253.056.056.14.056.116 0 .235-.112.088-.081.14-.197.053-.116.116-.368.064-.253.064-.372zm-2.031 4.926q0-.355.267-.674.266-.32.6-.323.179 0 .316.172.056-.105.16-.105.047 0 .082.028t.035.07q0 .046-.13.562-.13.515-.133.582 0 .088.024.116.025.028.074.032.031-.004.07-.032.074-.07.144-.337.02-.07.035-.074.007-.003.035-.003h.014q.067 0 .067.032 0 .02-.018.094-.017.074-.07.19-.053.116-.112.175-.046.046-.113.074-.028.007-.084.007-.12 0-.2-.053-.08-.052-.105-.108l-.021-.053q-.004-.004-.014.003l-.014.014q-.207.197-.421.197-.193 0-.34-.14-.148-.14-.148-.446zm1.116-.6q0-.021-.018-.077-.017-.057-.08-.123-.064-.067-.162-.07-.123 0-.235.108-.112.11-.175.285-.102.277-.144.575v.039q0 .028-.004.042 0 .158.063.217.064.06.151.064.134 0 .264-.116t.154-.18q.007-.013.095-.375.087-.361.09-.39zm-3.176.668q0 .009.029.033.03.026.1.06.068.035.138.03.094 0 .159-.044.105-.065.164-.209.059-.145.093-.421.036-.28.056-.587.02-.307.07-.843.048-.536.103-1.053.016-.114.04-.353.025-.237.045-.367l.055-.336q.034-.209.074-.334.04-.123.104-.278.065-.154.145-.237.078-.085.187-.164.11-.08.254-.1h.044q.035 0 .065-.005.253.016.397.179.145.164.145.368 0 .128-.08.188t-.164.06q-.094 0-.169-.065-.074-.064-.074-.179 0-.055.02-.1.02-.044.049-.074.03-.029.06-.039.029-.01.049-.024l.02-.006q0-.01-.035-.039-.034-.03-.1-.056-.063-.024-.134-.029-.114 0-.187.06-.075.06-.13.198-.055.14-.079.318-.025.178-.055.462-.03.283-.045.57-.015.288-.054.714-.04.428-.089.83-.1.848-.16 1.167-.059.317-.168.52-.234.492-.665.492-.248 0-.407-.168-.16-.17-.16-.379 0-.128.08-.187.08-.06.164-.06.095 0 .17.064.073.065.073.179 0 .055-.019.1-.02.045-.05.074-.03.03-.06.04-.03.01-.05.02z" style="stroke-width:1.11538"/>
  </g>
</svg>
